<svg xmlns="http://www.w3.org/2000/svg" xmlns:xlink="http://www.w3.org/1999/xlink" contentStyleType="text/css" height="303px" preserveAspectRatio="none" style="width:929px;height:303px;background:#FFFFFF;" version="1.1" viewBox="0 0 929 303" width="929px" zoomAndPan="magnify"><defs/><g><!--class Term--><g id="elem_Term"><rect codeLine="1" fill="#F1F1F1" height="129.4844" id="Term" rx="2.5" ry="2.5" style="stroke:#181818;stroke-width:0.5;" width="230.9688" x="7" y="167"/><ellipse cx="99.9551" cy="183" fill="#ADD1B2" rx="11" ry="11" style="stroke:#181818;stroke-width:1;"/><path d="M102.9238,188.6406 Q102.3457,188.9375 101.7051,189.0781 Q101.0645,189.2344 100.3613,189.2344 Q97.8613,189.2344 96.5332,187.5938 Q95.2207,185.9375 95.2207,182.8125 Q95.2207,179.6875 96.5332,178.0313 Q97.8613,176.375 100.3613,176.375 Q101.0645,176.375 101.7051,176.5313 Q102.3613,176.6875 102.9238,176.9844 L102.9238,179.7031 Q102.2988,179.125 101.7051,178.8594 Q101.1113,178.5781 100.4863,178.5781 Q99.1426,178.5781 98.4551,179.6563 Q97.7676,180.7188 97.7676,182.8125 Q97.7676,184.9063 98.4551,185.9844 Q99.1426,187.0469 100.4863,187.0469 Q101.1113,187.0469 101.7051,186.7813 Q102.2988,186.5 102.9238,185.9219 L102.9238,188.6406 Z " fill="#000000"/><text fill="#000000" font-family="sans-serif" font-size="14" lengthAdjust="spacing" textLength="36.5586" x="120.4551" y="187.8467">Term</text><line style="stroke:#181818;stroke-width:0.5;" x1="8" x2="236.9688" y1="199" y2="199"/><rect fill="none" height="6" style="stroke:#C82930;stroke-width:1;" width="6" x="15" y="209.6484"/><text fill="#000000" font-family="sans-serif" font-size="14" lengthAdjust="spacing" textLength="125.3506" x="27" y="215.9951">double coefficient</text><rect fill="none" height="6" style="stroke:#C82930;stroke-width:1;" width="6" x="15" y="225.9453"/><text fill="#000000" font-family="sans-serif" font-size="14" lengthAdjust="spacing" textLength="88.9014" x="27" y="232.292">int exponent</text><line style="stroke:#181818;stroke-width:0.5;" x1="8" x2="236.9688" y1="239.5938" y2="239.5938"/><ellipse cx="18" cy="253.2422" fill="#84BE84" rx="3" ry="3" style="stroke:#038048;stroke-width:1;"/><text fill="#000000" font-family="sans-serif" font-size="14" lengthAdjust="spacing" textLength="161.3418" x="27" y="256.5889">double getCoefficient()</text><ellipse cx="18" cy="269.5391" fill="#84BE84" rx="3" ry="3" style="stroke:#038048;stroke-width:1;"/><text fill="#000000" font-family="sans-serif" font-size="14" lengthAdjust="spacing" textLength="123.0469" x="27" y="272.8857">int getExponent()</text><ellipse cx="18" cy="285.8359" fill="#84BE84" rx="3" ry="3" style="stroke:#038048;stroke-width:1;"/><text fill="#000000" font-family="sans-serif" font-size="14" lengthAdjust="spacing" textLength="204.9688" x="27" y="289.1826">Term multiplyBy(Term other)</text></g><!--class Polynomial--><g id="elem_Polynomial"><rect codeLine="9" fill="#F1F1F1" height="96.8906" id="Polynomial" rx="2.5" ry="2.5" style="stroke:#181818;stroke-width:0.5;" width="208.417" x="18.5" y="10"/><ellipse cx="80.1499" cy="26" fill="#ADD1B2" rx="11" ry="11" style="stroke:#181818;stroke-width:1;"/><path d="M83.1187,31.6406 Q82.5405,31.9375 81.8999,32.0781 Q81.2593,32.2344 80.5562,32.2344 Q78.0562,32.2344 76.728,30.5938 Q75.4155,28.9375 75.4155,25.8125 Q75.4155,22.6875 76.728,21.0313 Q78.0562,19.375 80.5562,19.375 Q81.2593,19.375 81.8999,19.5313 Q82.5562,19.6875 83.1187,19.9844 L83.1187,22.7031 Q82.4937,22.125 81.8999,21.8594 Q81.3062,21.5781 80.6812,21.5781 Q79.3374,21.5781 78.6499,22.6563 Q77.9624,23.7188 77.9624,25.8125 Q77.9624,27.9063 78.6499,28.9844 Q79.3374,30.0469 80.6812,30.0469 Q81.3062,30.0469 81.8999,29.7813 Q82.4937,29.5 83.1187,28.9219 L83.1187,31.6406 Z " fill="#000000"/><text fill="#000000" font-family="sans-serif" font-size="14" lengthAdjust="spacing" textLength="76.6172" x="100.6499" y="30.8467">Polynomial</text><line style="stroke:#181818;stroke-width:0.5;" x1="19.5" x2="225.917" y1="42" y2="42"/><rect fill="none" height="6" style="stroke:#C82930;stroke-width:1;" width="6" x="26.5" y="52.6484"/><text fill="#000000" font-family="sans-serif" font-size="14" lengthAdjust="spacing" textLength="129.7324" x="38.5" y="58.9951">List&lt;Term&gt; terms</text><line style="stroke:#181818;stroke-width:0.5;" x1="19.5" x2="225.917" y1="66.2969" y2="66.2969"/><ellipse cx="29.5" cy="79.9453" fill="#84BE84" rx="3" ry="3" style="stroke:#038048;stroke-width:1;"/><text fill="#000000" font-family="sans-serif" font-size="14" lengthAdjust="spacing" textLength="182.417" x="38.5" y="83.292">void addTerm(Term term)</text><ellipse cx="29.5" cy="96.2422" fill="#84BE84" rx="3" ry="3" style="stroke:#038048;stroke-width:1;"/><text fill="#000000" font-family="sans-serif" font-size="14" lengthAdjust="spacing" textLength="166.708" x="38.5" y="99.5889">List&lt;Term&gt; getTerms()</text></g><!--class MathOperation--><g id="elem_MathOperation"><rect codeLine="15" fill="#F1F1F1" height="96.8906" id="MathOperation" rx="2.5" ry="2.5" style="stroke:#181818;stroke-width:0.5;" width="160.3604" x="375.5" y="10"/><ellipse cx="396.0521" cy="26" fill="#A9DCDF" rx="11" ry="11" style="stroke:#181818;stroke-width:1;"/><path d="M396.1614,21.3438 L395.0052,26.4219 L397.3333,26.4219 L396.1614,21.3438 Z M394.6771,19.1094 L397.6614,19.1094 L401.0208,31.5 L398.5677,31.5 L397.8021,28.4375 L394.5208,28.4375 L393.7708,31.5 L391.3333,31.5 L394.6771,19.1094 Z " fill="#000000"/><text fill="#000000" font-family="sans-serif" font-size="14" font-style="italic" lengthAdjust="spacing" textLength="104.6924" x="411.2858" y="30.8467">MathOperation</text><rect fill="#FFFFFF" height="15.9688" style="stroke:#181818;stroke-width:1;stroke-dasharray:2.0,2.0;" width="9.3301" x="529.5303" y="7"/><text fill="#000000" font-family="sans-serif" font-size="12" font-style="italic" lengthAdjust="spacing" textLength="7.3301" x="530.5303" y="19.1387">T</text><line style="stroke:#181818;stroke-width:0.5;" x1="376.5" x2="534.8604" y1="42" y2="42"/><line style="stroke:#181818;stroke-width:0.5;" x1="376.5" x2="534.8604" y1="50" y2="50"/><ellipse cx="386.5" cy="63.6484" fill="#84BE84" rx="3" ry="3" style="stroke:#038048;stroke-width:1;"/><text fill="#000000" font-family="sans-serif" font-size="14" font-style="italic" lengthAdjust="spacing" textLength="102.6484" x="395.5" y="66.9951">T add(T a, T b)</text><ellipse cx="386.5" cy="79.9453" fill="#84BE84" rx="3" ry="3" style="stroke:#038048;stroke-width:1;"/><text fill="#000000" font-family="sans-serif" font-size="14" font-style="italic" lengthAdjust="spacing" textLength="134.3604" x="395.5" y="83.292">T subtract(T a, T b)</text><ellipse cx="386.5" cy="96.2422" fill="#84BE84" rx="3" ry="3" style="stroke:#038048;stroke-width:1;"/><text fill="#000000" font-family="sans-serif" font-size="14" font-style="italic" lengthAdjust="spacing" textLength="133.1367" x="395.5" y="99.5889">T multiply(T a, T b)</text></g><!--class PolynomialOperation--><g id="elem_PolynomialOperation"><rect codeLine="21" fill="#F1F1F1" height="96.8906" id="PolynomialOperation" rx="2.5" ry="2.5" style="stroke:#181818;stroke-width:0.5;" width="364.5566" x="273" y="183"/><ellipse cx="377.8838" cy="199" fill="#ADD1B2" rx="11" ry="11" style="stroke:#181818;stroke-width:1;"/><path d="M380.8525,204.6406 Q380.2744,204.9375 379.6338,205.0781 Q378.9932,205.2344 378.29,205.2344 Q375.79,205.2344 374.4619,203.5938 Q373.1494,201.9375 373.1494,198.8125 Q373.1494,195.6875 374.4619,194.0313 Q375.79,192.375 378.29,192.375 Q378.9932,192.375 379.6338,192.5313 Q380.29,192.6875 380.8525,192.9844 L380.8525,195.7031 Q380.2275,195.125 379.6338,194.8594 Q379.04,194.5781 378.415,194.5781 Q377.0713,194.5781 376.3838,195.6563 Q375.6963,196.7188 375.6963,198.8125 Q375.6963,200.9063 376.3838,201.9844 Q377.0713,203.0469 378.415,203.0469 Q379.04,203.0469 379.6338,202.7813 Q380.2275,202.5 380.8525,201.9219 L380.8525,204.6406 Z " fill="#000000"/><text fill="#000000" font-family="sans-serif" font-size="14" lengthAdjust="spacing" textLength="146.2891" x="398.3838" y="203.8467">PolynomialOperation</text><line style="stroke:#181818;stroke-width:0.5;" x1="274" x2="636.5566" y1="215" y2="215"/><line style="stroke:#181818;stroke-width:0.5;" x1="274" x2="636.5566" y1="223" y2="223"/><ellipse cx="284" cy="236.6484" fill="#84BE84" rx="3" ry="3" style="stroke:#038048;stroke-width:1;"/><text fill="#000000" font-family="sans-serif" font-size="14" lengthAdjust="spacing" textLength="306.8447" x="293" y="239.9951">Polynomial add(Polynomial a, Polynomial b)</text><ellipse cx="284" cy="252.9453" fill="#84BE84" rx="3" ry="3" style="stroke:#038048;stroke-width:1;"/><text fill="#000000" font-family="sans-serif" font-size="14" lengthAdjust="spacing" textLength="338.5566" x="293" y="256.292">Polynomial subtract(Polynomial a, Polynomial b)</text><ellipse cx="284" cy="269.2422" fill="#84BE84" rx="3" ry="3" style="stroke:#038048;stroke-width:1;"/><text fill="#000000" font-family="sans-serif" font-size="14" lengthAdjust="spacing" textLength="337.333" x="293" y="272.5889">Polynomial multiply(Polynomial a, Polynomial b)</text></g><!--class MathException--><g id="elem_MathException"><rect codeLine="27" fill="#F1F1F1" height="64.2969" id="MathException" rx="2.5" ry="2.5" style="stroke:#181818;stroke-width:0.5;" width="250.2393" x="672.5" y="199.5"/><ellipse cx="741.2866" cy="215.5" fill="#ADD1B2" rx="11" ry="11" style="stroke:#181818;stroke-width:1;"/><path d="M744.2554,221.1406 Q743.6772,221.4375 743.0366,221.5781 Q742.396,221.7344 741.6929,221.7344 Q739.1929,221.7344 737.8647,220.0938 Q736.5522,218.4375 736.5522,215.3125 Q736.5522,212.1875 737.8647,210.5313 Q739.1929,208.875 741.6929,208.875 Q742.396,208.875 743.0366,209.0313 Q743.6929,209.1875 744.2554,209.4844 L744.2554,212.2031 Q743.6304,211.625 743.0366,211.3594 Q742.4429,211.0781 741.8179,211.0781 Q740.4741,211.0781 739.7866,212.1563 Q739.0991,213.2188 739.0991,215.3125 Q739.0991,217.4063 739.7866,218.4844 Q740.4741,219.5469 741.8179,219.5469 Q742.4429,219.5469 743.0366,219.2813 Q743.6304,219 744.2554,218.4219 L744.2554,221.1406 Z " fill="#000000"/><text fill="#000000" font-family="sans-serif" font-size="14" lengthAdjust="spacing" textLength="104.166" x="761.7866" y="220.3467">MathException</text><line style="stroke:#181818;stroke-width:0.5;" x1="673.5" x2="921.7393" y1="231.5" y2="231.5"/><line style="stroke:#181818;stroke-width:0.5;" x1="673.5" x2="921.7393" y1="239.5" y2="239.5"/><ellipse cx="683.5" cy="253.1484" fill="#84BE84" rx="3" ry="3" style="stroke:#038048;stroke-width:1;"/><text fill="#000000" font-family="sans-serif" font-size="14" lengthAdjust="spacing" textLength="224.2393" x="692.5" y="256.4951">MathException(String message)</text></g><!--class Exception--><g id="elem_Exception"><rect fill="#F1F1F1" height="48" id="Exception" rx="2.5" ry="2.5" style="stroke:#181818;stroke-width:0.5;" width="101.1455" x="747" y="34.5"/><ellipse cx="762" cy="50.5" fill="#ADD1B2" rx="11" ry="11" style="stroke:#181818;stroke-width:1;"/><path d="M764.9688,56.1406 Q764.3906,56.4375 763.75,56.5781 Q763.1094,56.7344 762.4063,56.7344 Q759.9063,56.7344 758.5781,55.0938 Q757.2656,53.4375 757.2656,50.3125 Q757.2656,47.1875 758.5781,45.5313 Q759.9063,43.875 762.4063,43.875 Q763.1094,43.875 763.75,44.0313 Q764.4063,44.1875 764.9688,44.4844 L764.9688,47.2031 Q764.3438,46.625 763.75,46.3594 Q763.1563,46.0781 762.5313,46.0781 Q761.1875,46.0781 760.5,47.1563 Q759.8125,48.2188 759.8125,50.3125 Q759.8125,52.4063 760.5,53.4844 Q761.1875,54.5469 762.5313,54.5469 Q763.1563,54.5469 763.75,54.2813 Q764.3438,54 764.9688,53.4219 L764.9688,56.1406 Z " fill="#000000"/><text fill="#000000" font-family="sans-serif" font-size="14" lengthAdjust="spacing" textLength="69.1455" x="776" y="55.3467">Exception</text><line style="stroke:#181818;stroke-width:0.5;" x1="748" x2="847.1455" y1="66.5" y2="66.5"/><line style="stroke:#181818;stroke-width:0.5;" x1="748" x2="847.1455" y1="74.5" y2="74.5"/></g><!--reverse link MathOperation to PolynomialOperation--><g id="link_MathOperation_PolynomialOperation"><path d="M455.5,125.13 C455.5,148.75 455.5,159.2 455.5,182.83 " fill="none" id="MathOperation-backto-PolynomialOperation" style="stroke:#181818;stroke-width:1;"/><polygon fill="none" points="455.5,107.13,449.5,125.13,461.5,125.13,455.5,107.13" style="stroke:#181818;stroke-width:1;"/></g><!--reverse link Exception to MathException--><g id="link_Exception_MathException"><path d="M797.5,100.56 C797.5,130.74 797.5,165.73 797.5,199.42 " fill="none" id="Exception-backto-MathException" style="stroke:#181818;stroke-width:1;"/><polygon fill="none" points="797.5,82.56,791.5,100.56,803.5,100.56,797.5,82.56" style="stroke:#181818;stroke-width:1;"/></g><!--reverse link Polynomial to Term--><g id="link_Polynomial_Term"><path codeLine="31" d="M122.5,119.13 C122.5,137.61 122.5,147.05 122.5,166.82 " fill="none" id="Polynomial-backto-Term" style="stroke:#181818;stroke-width:1;"/><polygon fill="none" points="122.5,107.13,118.5,113.13,122.5,119.13,126.5,113.13,122.5,107.13" style="stroke:#181818;stroke-width:1;"/></g><!--SRC=[ZLB1QiCm3BtdAtHCQFC7fOUDtZPMM7x0STJKuDWXLaP3wR_FijF4tKRPnKXFJqzFmb8Bvw32eODh1b0sTgmrWhHuEYcfq12ZoX3WfRScvfkPrIAzhiIyu19JFNwOsH4C-jseIVLwUfdoa5iwur1ajooJmSJHwidOJWaThRmfHpjcxe7ywrZeowe6HDCm75Mu56OaT3-V0vS7TL4x6eGaY6FU1Pq_UXm4AMjsrJuCsrplh1jKF23txzQ7TV6hwiOwn4yezrKJoXzhBYxyRGbDyzFRofnD9XTYYscwJSyN7IN0Old_BSiAprgMfTZuuIAnVrXdHOBz1rB-IOCoBNJed6WnQ2NYjYp3h_m6]--></g></svg>