<svg xmlns="http://www.w3.org/2000/svg" xmlns:xlink="http://www.w3.org/1999/xlink" contentStyleType="text/css" height="440px" preserveAspectRatio="none" style="width:1044px;height:440px;background:#FFFFFF;" version="1.1" viewBox="0 0 1044 440" width="1044px" zoomAndPan="magnify"><defs/><g><!--class User--><g id="elem_User"><rect codeLine="1" fill="#F1F1F1" height="129.4844" id="User" rx="2.5" ry="2.5" style="stroke:#181818;stroke-width:0.5;" width="355.752" x="202" y="180"/><ellipse cx="359.6709" cy="196" fill="#A9DCDF" rx="11" ry="11" style="stroke:#181818;stroke-width:1;"/><path d="M359.7803,191.3438 L358.624,196.4219 L360.9521,196.4219 L359.7803,191.3438 Z M358.2959,189.1094 L361.2803,189.1094 L364.6396,201.5 L362.1865,201.5 L361.4209,198.4375 L358.1396,198.4375 L357.3896,201.5 L354.9521,201.5 L358.2959,189.1094 Z " fill="#000000"/><text fill="#000000" font-family="sans-serif" font-size="14" font-style="italic" lengthAdjust="spacing" textLength="31.9102" x="380.1709" y="200.8467">User</text><line style="stroke:#181818;stroke-width:0.5;" x1="203" x2="556.752" y1="212" y2="212"/><rect fill="none" height="6" style="stroke:#C82930;stroke-width:1;" width="6" x="210" y="222.6484"/><text fill="#000000" font-family="sans-serif" font-size="14" lengthAdjust="spacing" textLength="116.4707" x="222" y="228.9951">String username</text><rect fill="none" height="6" style="stroke:#C82930;stroke-width:1;" width="6" x="210" y="238.9453"/><text fill="#000000" font-family="sans-serif" font-size="14" lengthAdjust="spacing" textLength="148.2168" x="222" y="245.292">String passwordHash</text><rect fill="none" height="6" style="stroke:#C82930;stroke-width:1;" width="6" x="210" y="255.2422"/><text fill="#000000" font-family="sans-serif" font-size="14" lengthAdjust="spacing" textLength="89.7832" x="222" y="261.5889">String userId</text><line style="stroke:#181818;stroke-width:0.5;" x1="203" x2="556.752" y1="268.8906" y2="268.8906"/><ellipse cx="213" cy="282.5391" fill="#84BE84" rx="3" ry="3" style="stroke:#038048;stroke-width:1;"/><text fill="#000000" font-family="sans-serif" font-size="14" lengthAdjust="spacing" textLength="273.3486" x="222" y="285.8857">boolean authenticate(String password)</text><ellipse cx="213" cy="298.8359" fill="#84BE84" rx="3" ry="3" style="stroke:#038048;stroke-width:1;"/><text fill="#000000" font-family="sans-serif" font-size="14" font-style="italic" lengthAdjust="spacing" textLength="329.752" x="222" y="302.1826">boolean hasPermission(Permission permission)</text></g><!--class Admin--><g id="elem_Admin"><rect codeLine="9" fill="#F1F1F1" height="64.2969" id="Admin" rx="2.5" ry="2.5" style="stroke:#181818;stroke-width:0.5;" width="355.752" x="7" y="369"/><ellipse cx="158.1938" cy="385" fill="#ADD1B2" rx="11" ry="11" style="stroke:#181818;stroke-width:1;"/><path d="M161.1626,390.6406 Q160.5845,390.9375 159.9438,391.0781 Q159.3032,391.2344 158.6001,391.2344 Q156.1001,391.2344 154.772,389.5938 Q153.4595,387.9375 153.4595,384.8125 Q153.4595,381.6875 154.772,380.0313 Q156.1001,378.375 158.6001,378.375 Q159.3032,378.375 159.9438,378.5313 Q160.6001,378.6875 161.1626,378.9844 L161.1626,381.7031 Q160.5376,381.125 159.9438,380.8594 Q159.3501,380.5781 158.7251,380.5781 Q157.3813,380.5781 156.6938,381.6563 Q156.0063,382.7188 156.0063,384.8125 Q156.0063,386.9063 156.6938,387.9844 Q157.3813,389.0469 158.7251,389.0469 Q159.3501,389.0469 159.9438,388.7813 Q160.5376,388.5 161.1626,387.9219 L161.1626,390.6406 Z " fill="#000000"/><text fill="#000000" font-family="sans-serif" font-size="14" lengthAdjust="spacing" textLength="44.8643" x="178.6938" y="389.8467">Admin</text><line style="stroke:#181818;stroke-width:0.5;" x1="8" x2="361.752" y1="401" y2="401"/><line style="stroke:#181818;stroke-width:0.5;" x1="8" x2="361.752" y1="409" y2="409"/><ellipse cx="18" cy="422.6484" fill="#84BE84" rx="3" ry="3" style="stroke:#038048;stroke-width:1;"/><text fill="#000000" font-family="sans-serif" font-size="14" lengthAdjust="spacing" textLength="329.752" x="27" y="425.9951">boolean hasPermission(Permission permission)</text></g><!--class RegularUser--><g id="elem_RegularUser"><rect codeLine="13" fill="#F1F1F1" height="64.2969" id="RegularUser" rx="2.5" ry="2.5" style="stroke:#181818;stroke-width:0.5;" width="355.752" x="398" y="369"/><ellipse cx="528.5083" cy="385" fill="#ADD1B2" rx="11" ry="11" style="stroke:#181818;stroke-width:1;"/><path d="M531.4771,390.6406 Q530.8989,390.9375 530.2583,391.0781 Q529.6177,391.2344 528.9146,391.2344 Q526.4146,391.2344 525.0864,389.5938 Q523.7739,387.9375 523.7739,384.8125 Q523.7739,381.6875 525.0864,380.0313 Q526.4146,378.375 528.9146,378.375 Q529.6177,378.375 530.2583,378.5313 Q530.9146,378.6875 531.4771,378.9844 L531.4771,381.7031 Q530.8521,381.125 530.2583,380.8594 Q529.6646,380.5781 529.0396,380.5781 Q527.6958,380.5781 527.0083,381.6563 Q526.3208,382.7188 526.3208,384.8125 Q526.3208,386.9063 527.0083,387.9844 Q527.6958,389.0469 529.0396,389.0469 Q529.6646,389.0469 530.2583,388.7813 Q530.8521,388.5 531.4771,387.9219 L531.4771,390.6406 Z " fill="#000000"/><text fill="#000000" font-family="sans-serif" font-size="14" lengthAdjust="spacing" textLength="86.2354" x="549.0083" y="389.8467">RegularUser</text><line style="stroke:#181818;stroke-width:0.5;" x1="399" x2="752.752" y1="401" y2="401"/><line style="stroke:#181818;stroke-width:0.5;" x1="399" x2="752.752" y1="409" y2="409"/><ellipse cx="409" cy="422.6484" fill="#84BE84" rx="3" ry="3" style="stroke:#038048;stroke-width:1;"/><text fill="#000000" font-family="sans-serif" font-size="14" lengthAdjust="spacing" textLength="329.752" x="418" y="425.9951">boolean hasPermission(Permission permission)</text></g><!--class AuthenticationService--><g id="elem_AuthenticationService"><rect codeLine="17" fill="#F1F1F1" height="113.1875" id="AuthenticationService" rx="2.5" ry="2.5" style="stroke:#181818;stroke-width:0.5;" width="583.6211" x="88" y="7"/><ellipse cx="298.3042" cy="23" fill="#ADD1B2" rx="11" ry="11" style="stroke:#181818;stroke-width:1;"/><path d="M301.2729,28.6406 Q300.6948,28.9375 300.0542,29.0781 Q299.4136,29.2344 298.7104,29.2344 Q296.2104,29.2344 294.8823,27.5938 Q293.5698,25.9375 293.5698,22.8125 Q293.5698,19.6875 294.8823,18.0313 Q296.2104,16.375 298.7104,16.375 Q299.4136,16.375 300.0542,16.5313 Q300.7104,16.6875 301.2729,16.9844 L301.2729,19.7031 Q300.6479,19.125 300.0542,18.8594 Q299.4604,18.5781 298.8354,18.5781 Q297.4917,18.5781 296.8042,19.6563 Q296.1167,20.7188 296.1167,22.8125 Q296.1167,24.9063 296.8042,25.9844 Q297.4917,27.0469 298.8354,27.0469 Q299.4604,27.0469 300.0542,26.7813 Q300.6479,26.5 301.2729,25.9219 L301.2729,28.6406 Z " fill="#000000"/><text fill="#000000" font-family="sans-serif" font-size="14" lengthAdjust="spacing" textLength="154.5127" x="318.8042" y="27.8467">AuthenticationService</text><line style="stroke:#181818;stroke-width:0.5;" x1="89" x2="670.6211" y1="39" y2="39"/><rect fill="none" height="6" style="stroke:#C82930;stroke-width:1;" width="6" x="96" y="49.6484"/><text fill="#000000" font-family="sans-serif" font-size="14" lengthAdjust="spacing" textLength="85.1143" x="108" y="55.9951">User[] users</text><rect fill="none" height="6" style="stroke:#C82930;stroke-width:1;" width="6" x="96" y="65.9453"/><text fill="#000000" font-family="sans-serif" font-size="14" lengthAdjust="spacing" textLength="94.8145" x="108" y="72.292">int userCount</text><line style="stroke:#181818;stroke-width:0.5;" x1="89" x2="670.6211" y1="79.5938" y2="79.5938"/><ellipse cx="99" cy="93.2422" fill="#84BE84" rx="3" ry="3" style="stroke:#038048;stroke-width:1;"/><text fill="#000000" font-family="sans-serif" font-size="14" lengthAdjust="spacing" textLength="557.6211" x="108" y="96.5889">User authenticate(String username, String password) throws SecurityException</text><ellipse cx="99" cy="109.5391" fill="#84BE84" rx="3" ry="3" style="stroke:#038048;stroke-width:1;"/><text fill="#000000" font-family="sans-serif" font-size="14" lengthAdjust="spacing" textLength="381.0693" x="108" y="112.8857">void registerUser(User user) throws SecurityException</text></g><!--class Permission--><g id="elem_Permission"><rect codeLine="24" fill="#F1F1F1" height="113.1875" id="Permission" rx="2.5" ry="2.5" style="stroke:#181818;stroke-width:0.5;" width="108.2549" x="707" y="7"/><ellipse cx="722" cy="23" fill="#EB937F" rx="11" ry="11" style="stroke:#181818;stroke-width:1;"/><path d="M726.1094,29 L718.3906,29 L718.3906,16.6094 L726.1094,16.6094 L726.1094,18.7656 L720.8438,18.7656 L720.8438,21.4375 L725.6094,21.4375 L725.6094,23.5938 L720.8438,23.5938 L720.8438,26.8438 L726.1094,26.8438 L726.1094,29 Z " fill="#000000"/><text fill="#000000" font-family="sans-serif" font-size="14" lengthAdjust="spacing" textLength="76.2549" x="736" y="27.8467">Permission</text><line style="stroke:#181818;stroke-width:0.5;" x1="708" x2="814.2549" y1="39" y2="39"/><text fill="#000000" font-family="sans-serif" font-size="14" lengthAdjust="spacing" textLength="38.9307" x="713" y="55.9951">READ</text><text fill="#000000" font-family="sans-serif" font-size="14" lengthAdjust="spacing" textLength="45.0967" x="713" y="72.292">WRITE</text><text fill="#000000" font-family="sans-serif" font-size="14" lengthAdjust="spacing" textLength="64.7021" x="713" y="88.5889">EXECUTE</text><text fill="#000000" font-family="sans-serif" font-size="14" lengthAdjust="spacing" textLength="47.0381" x="713" y="104.8857">ADMIN</text><line style="stroke:#181818;stroke-width:0.5;" x1="708" x2="814.2549" y1="112.1875" y2="112.1875"/></g><!--class SecurityException--><g id="elem_SecurityException"><rect codeLine="31" fill="#F1F1F1" height="64.2969" id="SecurityException" rx="2.5" ry="2.5" style="stroke:#181818;stroke-width:0.5;" width="272.709" x="764.5" y="212.5"/><ellipse cx="833.2866" cy="228.5" fill="#ADD1B2" rx="11" ry="11" style="stroke:#181818;stroke-width:1;"/><path d="M836.2554,234.1406 Q835.6772,234.4375 835.0366,234.5781 Q834.396,234.7344 833.6929,234.7344 Q831.1929,234.7344 829.8647,233.0938 Q828.5522,231.4375 828.5522,228.3125 Q828.5522,225.1875 829.8647,223.5313 Q831.1929,221.875 833.6929,221.875 Q834.396,221.875 835.0366,222.0313 Q835.6929,222.1875 836.2554,222.4844 L836.2554,225.2031 Q835.6304,224.625 835.0366,224.3594 Q834.4429,224.0781 833.8179,224.0781 Q832.4741,224.0781 831.7866,225.1563 Q831.0991,226.2188 831.0991,228.3125 Q831.0991,230.4063 831.7866,231.4844 Q832.4741,232.5469 833.8179,232.5469 Q834.4429,232.5469 835.0366,232.2813 Q835.6304,232 836.2554,231.4219 L836.2554,234.1406 Z " fill="#000000"/><text fill="#000000" font-family="sans-serif" font-size="14" lengthAdjust="spacing" textLength="126.6357" x="853.7866" y="233.3467">SecurityException</text><line style="stroke:#181818;stroke-width:0.5;" x1="765.5" x2="1036.209" y1="244.5" y2="244.5"/><line style="stroke:#181818;stroke-width:0.5;" x1="765.5" x2="1036.209" y1="252.5" y2="252.5"/><ellipse cx="775.5" cy="266.1484" fill="#84BE84" rx="3" ry="3" style="stroke:#038048;stroke-width:1;"/><text fill="#000000" font-family="sans-serif" font-size="14" lengthAdjust="spacing" textLength="246.709" x="784.5" y="269.4951">SecurityException(String message)</text></g><!--class Exception--><g id="elem_Exception"><rect fill="#F1F1F1" height="48" id="Exception" rx="2.5" ry="2.5" style="stroke:#181818;stroke-width:0.5;" width="101.1455" x="850.5" y="39.5"/><ellipse cx="865.5" cy="55.5" fill="#ADD1B2" rx="11" ry="11" style="stroke:#181818;stroke-width:1;"/><path d="M868.4688,61.1406 Q867.8906,61.4375 867.25,61.5781 Q866.6094,61.7344 865.9063,61.7344 Q863.4063,61.7344 862.0781,60.0938 Q860.7656,58.4375 860.7656,55.3125 Q860.7656,52.1875 862.0781,50.5313 Q863.4063,48.875 865.9063,48.875 Q866.6094,48.875 867.25,49.0313 Q867.9063,49.1875 868.4688,49.4844 L868.4688,52.2031 Q867.8438,51.625 867.25,51.3594 Q866.6563,51.0781 866.0313,51.0781 Q864.6875,51.0781 864,52.1563 Q863.3125,53.2188 863.3125,55.3125 Q863.3125,57.4063 864,58.4844 Q864.6875,59.5469 866.0313,59.5469 Q866.6563,59.5469 867.25,59.2813 Q867.8438,59 868.4688,58.4219 L868.4688,61.1406 Z " fill="#000000"/><text fill="#000000" font-family="sans-serif" font-size="14" lengthAdjust="spacing" textLength="69.1455" x="879.5" y="60.3467">Exception</text><line style="stroke:#181818;stroke-width:0.5;" x1="851.5" x2="950.6455" y1="71.5" y2="71.5"/><line style="stroke:#181818;stroke-width:0.5;" x1="851.5" x2="950.6455" y1="79.5" y2="79.5"/></g><!--reverse link User to Admin--><g id="link_User_Admin"><path d="M285.7317,320.1883 C259.6817,340.8283 246.03,351.64 224.33,368.84 " fill="none" id="User-backto-Admin" style="stroke:#181818;stroke-width:1;"/><polygon fill="none" points="299.84,309.01,282.0056,315.4856,289.4578,324.8911,299.84,309.01" style="stroke:#181818;stroke-width:1;"/></g><!--reverse link User to RegularUser--><g id="link_User_RegularUser"><path d="M474.7053,320.1541 C500.8853,340.7941 514.65,351.64 536.47,368.84 " fill="none" id="User-backto-RegularUser" style="stroke:#181818;stroke-width:1;"/><polygon fill="none" points="460.57,309.01,470.9906,324.8659,478.4201,315.4424,460.57,309.01" style="stroke:#181818;stroke-width:1;"/></g><!--reverse link Exception to SecurityException--><g id="link_Exception_SecurityException"><path d="M901,105.53 C901,137.36 901,176.86 901,212.45 " fill="none" id="Exception-backto-SecurityException" style="stroke:#181818;stroke-width:1;"/><polygon fill="none" points="901,87.53,895,105.53,907,105.53,901,87.53" style="stroke:#181818;stroke-width:1;"/></g><!--reverse link AuthenticationService to User--><g id="link_AuthenticationService_User"><path codeLine="35" d="M380,132.16 C380,151.04 380,160.28 380,179.75 " fill="none" id="AuthenticationService-backto-User" style="stroke:#181818;stroke-width:1;"/><polygon fill="none" points="380,120.16,376,126.16,380,132.16,384,126.16,380,120.16" style="stroke:#181818;stroke-width:1;"/></g><!--SRC=[hP71QiCm38RlUGeTKxe-H6W3os5Z92iRZ1tSH2I6n0wMt7QKlljiTsb2MdOOErcMfV-NFeiTiH4bGzaA8jWI6ZX50Ak2ZLGrM9TGeiD9gdU51ssgHq7Dh3AhN6Avqxf5eK1ORb2nB0LZF6jU-CAJ-74_mz3J27f1qqaYgLKyXj1VmqLqZgBBk4dLIGLuP5JLPFZbtzHoh6qhJ93vByraPE0U2ZHxMUA5i9V- -0pSoD-bud1PQwlOEmRlUn27Jtc0ELNWnkW3GO6bDPA_qcE9lNVsUdijAp1OIs8CMyR1mQlzqkXMGMKxc6pgny_JPEEEjpnxJTsPlgVhROYIpLFsF0Au4RoY7JE1xqtXi6s7HAB60FK-JhrQXO_w1W00]--></g></svg>